<?xml version="1.0" encoding="utf-8" standalone="no"?>
<!DOCTYPE svg PUBLIC "-//W3C//DTD SVG 1.1//EN"
  "http://www.w3.org/Graphics/SVG/1.1/DTD/svg11.dtd">
<!-- Created with matplotlib (https://matplotlib.org/) -->
<svg height="498.605375pt" version="1.1" viewBox="0 0 619.478125 498.605375" width="619.478125pt" xmlns="http://www.w3.org/2000/svg" xmlns:xlink="http://www.w3.org/1999/xlink">
 <defs>
  <style type="text/css">
*{stroke-linecap:butt;stroke-linejoin:round;white-space:pre;}
  </style>
 </defs>
 <g id="figure_1">
  <g id="patch_1">
   <path d="M 0 498.605375 
L 619.478125 498.605375 
L 619.478125 0 
L 0 0 
z
" style="fill:#ffffff;"/>
  </g>
  <g id="axes_1">
   <g id="patch_2">
    <path d="M 54.278125 442.08 
L 612.278125 442.08 
L 612.278125 7.2 
L 54.278125 7.2 
z
" style="fill:#e5e5e5;"/>
   </g>
   <g id="matplotlib.axis_1">
    <g id="xtick_1">
     <g id="line2d_1">
      <path clip-path="url(#p33f70e2333)" d="M 89.840437 442.08 
L 89.840437 7.2 
" style="fill:none;stroke:#ffffff;stroke-linecap:square;stroke-width:0.8;"/>
     </g>
     <g id="line2d_2">
      <defs>
       <path d="M 0 0 
L 0 3.5 
" id="m136c43af1e" style="stroke:#555555;stroke-width:0.8;"/>
      </defs>
      <g>
       <use style="fill:#555555;stroke:#555555;stroke-width:0.8;" x="89.840437" xlink:href="#m136c43af1e" y="442.08"/>
      </g>
     </g>
     <g id="text_1">
      <!-- 0.0 -->
      <defs>
       <path d="M 31.78125 66.40625 
Q 24.171875 66.40625 20.328125 58.90625 
Q 16.5 51.421875 16.5 36.375 
Q 16.5 21.390625 20.328125 13.890625 
Q 24.171875 6.390625 31.78125 6.390625 
Q 39.453125 6.390625 43.28125 13.890625 
Q 47.125 21.390625 47.125 36.375 
Q 47.125 51.421875 43.28125 58.90625 
Q 39.453125 66.40625 31.78125 66.40625 
z
M 31.78125 74.21875 
Q 44.046875 74.21875 50.515625 64.515625 
Q 56.984375 54.828125 56.984375 36.375 
Q 56.984375 17.96875 50.515625 8.265625 
Q 44.046875 -1.421875 31.78125 -1.421875 
Q 19.53125 -1.421875 13.0625 8.265625 
Q 6.59375 17.96875 6.59375 36.375 
Q 6.59375 54.828125 13.0625 64.515625 
Q 19.53125 74.21875 31.78125 74.21875 
z
" id="DejaVuSans-48"/>
       <path d="M 10.6875 12.40625 
L 21 12.40625 
L 21 0 
L 10.6875 0 
z
" id="DejaVuSans-46"/>
      </defs>
      <g style="fill:#555555;" transform="translate(75.527624 462.757187)scale(0.18 -0.18)">
       <use xlink:href="#DejaVuSans-48"/>
       <use x="63.623047" xlink:href="#DejaVuSans-46"/>
       <use x="95.410156" xlink:href="#DejaVuSans-48"/>
      </g>
     </g>
    </g>
    <g id="xtick_2">
     <g id="line2d_3">
      <path clip-path="url(#p33f70e2333)" d="M 152.228363 442.08 
L 152.228363 7.2 
" style="fill:none;stroke:#ffffff;stroke-linecap:square;stroke-width:0.8;"/>
     </g>
     <g id="line2d_4">
      <g>
       <use style="fill:#555555;stroke:#555555;stroke-width:0.8;" x="152.228363" xlink:href="#m136c43af1e" y="442.08"/>
      </g>
     </g>
     <g id="text_2">
      <!-- 2.5 -->
      <defs>
       <path d="M 19.1875 8.296875 
L 53.609375 8.296875 
L 53.609375 0 
L 7.328125 0 
L 7.328125 8.296875 
Q 12.9375 14.109375 22.625 23.890625 
Q 32.328125 33.6875 34.8125 36.53125 
Q 39.546875 41.84375 41.421875 45.53125 
Q 43.3125 49.21875 43.3125 52.78125 
Q 43.3125 58.59375 39.234375 62.25 
Q 35.15625 65.921875 28.609375 65.921875 
Q 23.96875 65.921875 18.8125 64.3125 
Q 13.671875 62.703125 7.8125 59.421875 
L 7.8125 69.390625 
Q 13.765625 71.78125 18.9375 73 
Q 24.125 74.21875 28.421875 74.21875 
Q 39.75 74.21875 46.484375 68.546875 
Q 53.21875 62.890625 53.21875 53.421875 
Q 53.21875 48.921875 51.53125 44.890625 
Q 49.859375 40.875 45.40625 35.40625 
Q 44.1875 33.984375 37.640625 27.21875 
Q 31.109375 20.453125 19.1875 8.296875 
z
" id="DejaVuSans-50"/>
       <path d="M 10.796875 72.90625 
L 49.515625 72.90625 
L 49.515625 64.59375 
L 19.828125 64.59375 
L 19.828125 46.734375 
Q 21.96875 47.46875 24.109375 47.828125 
Q 26.265625 48.1875 28.421875 48.1875 
Q 40.625 48.1875 47.75 41.5 
Q 54.890625 34.8125 54.890625 23.390625 
Q 54.890625 11.625 47.5625 5.09375 
Q 40.234375 -1.421875 26.90625 -1.421875 
Q 22.3125 -1.421875 17.546875 -0.640625 
Q 12.796875 0.140625 7.71875 1.703125 
L 7.71875 11.625 
Q 12.109375 9.234375 16.796875 8.0625 
Q 21.484375 6.890625 26.703125 6.890625 
Q 35.15625 6.890625 40.078125 11.328125 
Q 45.015625 15.765625 45.015625 23.390625 
Q 45.015625 31 40.078125 35.4375 
Q 35.15625 39.890625 26.703125 39.890625 
Q 22.75 39.890625 18.8125 39.015625 
Q 14.890625 38.140625 10.796875 36.28125 
z
" id="DejaVuSans-53"/>
      </defs>
      <g style="fill:#555555;" transform="translate(137.915551 462.757187)scale(0.18 -0.18)">
       <use xlink:href="#DejaVuSans-50"/>
       <use x="63.623047" xlink:href="#DejaVuSans-46"/>
       <use x="95.410156" xlink:href="#DejaVuSans-53"/>
      </g>
     </g>
    </g>
    <g id="xtick_3">
     <g id="line2d_5">
      <path clip-path="url(#p33f70e2333)" d="M 214.616289 442.08 
L 214.616289 7.2 
" style="fill:none;stroke:#ffffff;stroke-linecap:square;stroke-width:0.8;"/>
     </g>
     <g id="line2d_6">
      <g>
       <use style="fill:#555555;stroke:#555555;stroke-width:0.8;" x="214.616289" xlink:href="#m136c43af1e" y="442.08"/>
      </g>
     </g>
     <g id="text_3">
      <!-- 5.0 -->
      <g style="fill:#555555;" transform="translate(200.303477 462.757187)scale(0.18 -0.18)">
       <use xlink:href="#DejaVuSans-53"/>
       <use x="63.623047" xlink:href="#DejaVuSans-46"/>
       <use x="95.410156" xlink:href="#DejaVuSans-48"/>
      </g>
     </g>
    </g>
    <g id="xtick_4">
     <g id="line2d_7">
      <path clip-path="url(#p33f70e2333)" d="M 277.004216 442.08 
L 277.004216 7.2 
" style="fill:none;stroke:#ffffff;stroke-linecap:square;stroke-width:0.8;"/>
     </g>
     <g id="line2d_8">
      <g>
       <use style="fill:#555555;stroke:#555555;stroke-width:0.8;" x="277.004216" xlink:href="#m136c43af1e" y="442.08"/>
      </g>
     </g>
     <g id="text_4">
      <!-- 7.5 -->
      <defs>
       <path d="M 8.203125 72.90625 
L 55.078125 72.90625 
L 55.078125 68.703125 
L 28.609375 0 
L 18.3125 0 
L 43.21875 64.59375 
L 8.203125 64.59375 
z
" id="DejaVuSans-55"/>
      </defs>
      <g style="fill:#555555;" transform="translate(262.691403 462.757187)scale(0.18 -0.18)">
       <use xlink:href="#DejaVuSans-55"/>
       <use x="63.623047" xlink:href="#DejaVuSans-46"/>
       <use x="95.410156" xlink:href="#DejaVuSans-53"/>
      </g>
     </g>
    </g>
    <g id="xtick_5">
     <g id="line2d_9">
      <path clip-path="url(#p33f70e2333)" d="M 339.392142 442.08 
L 339.392142 7.2 
" style="fill:none;stroke:#ffffff;stroke-linecap:square;stroke-width:0.8;"/>
     </g>
     <g id="line2d_10">
      <g>
       <use style="fill:#555555;stroke:#555555;stroke-width:0.8;" x="339.392142" xlink:href="#m136c43af1e" y="442.08"/>
      </g>
     </g>
     <g id="text_5">
      <!-- 10.0 -->
      <defs>
       <path d="M 12.40625 8.296875 
L 28.515625 8.296875 
L 28.515625 63.921875 
L 10.984375 60.40625 
L 10.984375 69.390625 
L 28.421875 72.90625 
L 38.28125 72.90625 
L 38.28125 8.296875 
L 54.390625 8.296875 
L 54.390625 0 
L 12.40625 0 
z
" id="DejaVuSans-49"/>
      </defs>
      <g style="fill:#555555;" transform="translate(319.353079 462.757187)scale(0.18 -0.18)">
       <use xlink:href="#DejaVuSans-49"/>
       <use x="63.623047" xlink:href="#DejaVuSans-48"/>
       <use x="127.246094" xlink:href="#DejaVuSans-46"/>
       <use x="159.033203" xlink:href="#DejaVuSans-48"/>
      </g>
     </g>
    </g>
    <g id="xtick_6">
     <g id="line2d_11">
      <path clip-path="url(#p33f70e2333)" d="M 401.780068 442.08 
L 401.780068 7.2 
" style="fill:none;stroke:#ffffff;stroke-linecap:square;stroke-width:0.8;"/>
     </g>
     <g id="line2d_12">
      <g>
       <use style="fill:#555555;stroke:#555555;stroke-width:0.8;" x="401.780068" xlink:href="#m136c43af1e" y="442.08"/>
      </g>
     </g>
     <g id="text_6">
      <!-- 12.5 -->
      <g style="fill:#555555;" transform="translate(381.741005 462.757187)scale(0.18 -0.18)">
       <use xlink:href="#DejaVuSans-49"/>
       <use x="63.623047" xlink:href="#DejaVuSans-50"/>
       <use x="127.246094" xlink:href="#DejaVuSans-46"/>
       <use x="159.033203" xlink:href="#DejaVuSans-53"/>
      </g>
     </g>
    </g>
    <g id="xtick_7">
     <g id="line2d_13">
      <path clip-path="url(#p33f70e2333)" d="M 464.167994 442.08 
L 464.167994 7.2 
" style="fill:none;stroke:#ffffff;stroke-linecap:square;stroke-width:0.8;"/>
     </g>
     <g id="line2d_14">
      <g>
       <use style="fill:#555555;stroke:#555555;stroke-width:0.8;" x="464.167994" xlink:href="#m136c43af1e" y="442.08"/>
      </g>
     </g>
     <g id="text_7">
      <!-- 15.0 -->
      <g style="fill:#555555;" transform="translate(444.128932 462.757187)scale(0.18 -0.18)">
       <use xlink:href="#DejaVuSans-49"/>
       <use x="63.623047" xlink:href="#DejaVuSans-53"/>
       <use x="127.246094" xlink:href="#DejaVuSans-46"/>
       <use x="159.033203" xlink:href="#DejaVuSans-48"/>
      </g>
     </g>
    </g>
    <g id="xtick_8">
     <g id="line2d_15">
      <path clip-path="url(#p33f70e2333)" d="M 526.55592 442.08 
L 526.55592 7.2 
" style="fill:none;stroke:#ffffff;stroke-linecap:square;stroke-width:0.8;"/>
     </g>
     <g id="line2d_16">
      <g>
       <use style="fill:#555555;stroke:#555555;stroke-width:0.8;" x="526.55592" xlink:href="#m136c43af1e" y="442.08"/>
      </g>
     </g>
     <g id="text_8">
      <!-- 17.5 -->
      <g style="fill:#555555;" transform="translate(506.516858 462.757187)scale(0.18 -0.18)">
       <use xlink:href="#DejaVuSans-49"/>
       <use x="63.623047" xlink:href="#DejaVuSans-55"/>
       <use x="127.246094" xlink:href="#DejaVuSans-46"/>
       <use x="159.033203" xlink:href="#DejaVuSans-53"/>
      </g>
     </g>
    </g>
    <g id="xtick_9">
     <g id="line2d_17">
      <path clip-path="url(#p33f70e2333)" d="M 588.943847 442.08 
L 588.943847 7.2 
" style="fill:none;stroke:#ffffff;stroke-linecap:square;stroke-width:0.8;"/>
     </g>
     <g id="line2d_18">
      <g>
       <use style="fill:#555555;stroke:#555555;stroke-width:0.8;" x="588.943847" xlink:href="#m136c43af1e" y="442.08"/>
      </g>
     </g>
     <g id="text_9">
      <!-- 20.0 -->
      <g style="fill:#555555;" transform="translate(568.904784 462.757187)scale(0.18 -0.18)">
       <use xlink:href="#DejaVuSans-50"/>
       <use x="63.623047" xlink:href="#DejaVuSans-48"/>
       <use x="127.246094" xlink:href="#DejaVuSans-46"/>
       <use x="159.033203" xlink:href="#DejaVuSans-48"/>
      </g>
     </g>
    </g>
    <g id="text_10">
     <!-- ABV % -->
     <defs>
      <path d="M 34.1875 63.1875 
L 20.796875 26.90625 
L 47.609375 26.90625 
z
M 28.609375 72.90625 
L 39.796875 72.90625 
L 67.578125 0 
L 57.328125 0 
L 50.6875 18.703125 
L 17.828125 18.703125 
L 11.1875 0 
L 0.78125 0 
z
" id="DejaVuSans-65"/>
      <path d="M 19.671875 34.8125 
L 19.671875 8.109375 
L 35.5 8.109375 
Q 43.453125 8.109375 47.28125 11.40625 
Q 51.125 14.703125 51.125 21.484375 
Q 51.125 28.328125 47.28125 31.5625 
Q 43.453125 34.8125 35.5 34.8125 
z
M 19.671875 64.796875 
L 19.671875 42.828125 
L 34.28125 42.828125 
Q 41.5 42.828125 45.03125 45.53125 
Q 48.578125 48.25 48.578125 53.8125 
Q 48.578125 59.328125 45.03125 62.0625 
Q 41.5 64.796875 34.28125 64.796875 
z
M 9.8125 72.90625 
L 35.015625 72.90625 
Q 46.296875 72.90625 52.390625 68.21875 
Q 58.5 63.53125 58.5 54.890625 
Q 58.5 48.1875 55.375 44.234375 
Q 52.25 40.28125 46.1875 39.3125 
Q 53.46875 37.75 57.5 32.78125 
Q 61.53125 27.828125 61.53125 20.40625 
Q 61.53125 10.640625 54.890625 5.3125 
Q 48.25 0 35.984375 0 
L 9.8125 0 
z
" id="DejaVuSans-66"/>
      <path d="M 28.609375 0 
L 0.78125 72.90625 
L 11.078125 72.90625 
L 34.1875 11.53125 
L 57.328125 72.90625 
L 67.578125 72.90625 
L 39.796875 0 
z
" id="DejaVuSans-86"/>
      <path id="DejaVuSans-32"/>
      <path d="M 72.703125 32.078125 
Q 68.453125 32.078125 66.03125 28.46875 
Q 63.625 24.859375 63.625 18.40625 
Q 63.625 12.0625 66.03125 8.421875 
Q 68.453125 4.78125 72.703125 4.78125 
Q 76.859375 4.78125 79.265625 8.421875 
Q 81.6875 12.0625 81.6875 18.40625 
Q 81.6875 24.8125 79.265625 28.4375 
Q 76.859375 32.078125 72.703125 32.078125 
z
M 72.703125 38.28125 
Q 80.421875 38.28125 84.953125 32.90625 
Q 89.5 27.546875 89.5 18.40625 
Q 89.5 9.28125 84.9375 3.921875 
Q 80.375 -1.421875 72.703125 -1.421875 
Q 64.890625 -1.421875 60.34375 3.921875 
Q 55.8125 9.28125 55.8125 18.40625 
Q 55.8125 27.59375 60.375 32.9375 
Q 64.9375 38.28125 72.703125 38.28125 
z
M 22.3125 68.015625 
Q 18.109375 68.015625 15.6875 64.375 
Q 13.28125 60.75 13.28125 54.390625 
Q 13.28125 47.953125 15.671875 44.328125 
Q 18.0625 40.71875 22.3125 40.71875 
Q 26.5625 40.71875 28.96875 44.328125 
Q 31.390625 47.953125 31.390625 54.390625 
Q 31.390625 60.6875 28.953125 64.34375 
Q 26.515625 68.015625 22.3125 68.015625 
z
M 66.40625 74.21875 
L 74.21875 74.21875 
L 28.609375 -1.421875 
L 20.796875 -1.421875 
z
M 22.3125 74.21875 
Q 30.03125 74.21875 34.609375 68.875 
Q 39.203125 63.53125 39.203125 54.390625 
Q 39.203125 45.171875 34.640625 39.84375 
Q 30.078125 34.515625 22.3125 34.515625 
Q 14.546875 34.515625 10.03125 39.859375 
Q 5.515625 45.21875 5.515625 54.390625 
Q 5.515625 63.484375 10.046875 68.84375 
Q 14.59375 74.21875 22.3125 74.21875 
z
" id="DejaVuSans-37"/>
     </defs>
     <g style="fill:#555555;" transform="translate(297.403563 486.91325)scale(0.216 -0.216)">
      <use xlink:href="#DejaVuSans-65"/>
      <use x="68.408203" xlink:href="#DejaVuSans-66"/>
      <use x="136.964844" xlink:href="#DejaVuSans-86"/>
      <use x="205.373047" xlink:href="#DejaVuSans-32"/>
      <use x="237.160156" xlink:href="#DejaVuSans-37"/>
     </g>
    </g>
   </g>
   <g id="matplotlib.axis_2">
    <g id="ytick_1">
     <g id="line2d_19">
      <path clip-path="url(#p33f70e2333)" d="M 54.278125 442.08 
L 612.278125 442.08 
" style="fill:none;stroke:#ffffff;stroke-linecap:square;stroke-width:0.8;"/>
     </g>
     <g id="line2d_20">
      <defs>
       <path d="M 0 0 
L -3.5 0 
" id="m9383f57d4a" style="stroke:#555555;stroke-width:0.8;"/>
      </defs>
      <g>
       <use style="fill:#555555;stroke:#555555;stroke-width:0.8;" x="54.278125" xlink:href="#m9383f57d4a" y="442.08"/>
      </g>
     </g>
     <g id="text_11">
      <!-- 0.00 -->
      <g style="fill:#555555;" transform="translate(7.2 448.918594)scale(0.18 -0.18)">
       <use xlink:href="#DejaVuSans-48"/>
       <use x="63.623047" xlink:href="#DejaVuSans-46"/>
       <use x="95.410156" xlink:href="#DejaVuSans-48"/>
       <use x="159.033203" xlink:href="#DejaVuSans-48"/>
      </g>
     </g>
    </g>
    <g id="ytick_2">
     <g id="line2d_21">
      <path clip-path="url(#p33f70e2333)" d="M 54.278125 384.288445 
L 612.278125 384.288445 
" style="fill:none;stroke:#ffffff;stroke-linecap:square;stroke-width:0.8;"/>
     </g>
     <g id="line2d_22">
      <g>
       <use style="fill:#555555;stroke:#555555;stroke-width:0.8;" x="54.278125" xlink:href="#m9383f57d4a" y="384.288445"/>
      </g>
     </g>
     <g id="text_12">
      <!-- 0.05 -->
      <g style="fill:#555555;" transform="translate(7.2 391.127038)scale(0.18 -0.18)">
       <use xlink:href="#DejaVuSans-48"/>
       <use x="63.623047" xlink:href="#DejaVuSans-46"/>
       <use x="95.410156" xlink:href="#DejaVuSans-48"/>
       <use x="159.033203" xlink:href="#DejaVuSans-53"/>
      </g>
     </g>
    </g>
    <g id="ytick_3">
     <g id="line2d_23">
      <path clip-path="url(#p33f70e2333)" d="M 54.278125 326.496889 
L 612.278125 326.496889 
" style="fill:none;stroke:#ffffff;stroke-linecap:square;stroke-width:0.8;"/>
     </g>
     <g id="line2d_24">
      <g>
       <use style="fill:#555555;stroke:#555555;stroke-width:0.8;" x="54.278125" xlink:href="#m9383f57d4a" y="326.496889"/>
      </g>
     </g>
     <g id="text_13">
      <!-- 0.10 -->
      <g style="fill:#555555;" transform="translate(7.2 333.335483)scale(0.18 -0.18)">
       <use xlink:href="#DejaVuSans-48"/>
       <use x="63.623047" xlink:href="#DejaVuSans-46"/>
       <use x="95.410156" xlink:href="#DejaVuSans-49"/>
       <use x="159.033203" xlink:href="#DejaVuSans-48"/>
      </g>
     </g>
    </g>
    <g id="ytick_4">
     <g id="line2d_25">
      <path clip-path="url(#p33f70e2333)" d="M 54.278125 268.705334 
L 612.278125 268.705334 
" style="fill:none;stroke:#ffffff;stroke-linecap:square;stroke-width:0.8;"/>
     </g>
     <g id="line2d_26">
      <g>
       <use style="fill:#555555;stroke:#555555;stroke-width:0.8;" x="54.278125" xlink:href="#m9383f57d4a" y="268.705334"/>
      </g>
     </g>
     <g id="text_14">
      <!-- 0.15 -->
      <g style="fill:#555555;" transform="translate(7.2 275.543927)scale(0.18 -0.18)">
       <use xlink:href="#DejaVuSans-48"/>
       <use x="63.623047" xlink:href="#DejaVuSans-46"/>
       <use x="95.410156" xlink:href="#DejaVuSans-49"/>
       <use x="159.033203" xlink:href="#DejaVuSans-53"/>
      </g>
     </g>
    </g>
    <g id="ytick_5">
     <g id="line2d_27">
      <path clip-path="url(#p33f70e2333)" d="M 54.278125 210.913778 
L 612.278125 210.913778 
" style="fill:none;stroke:#ffffff;stroke-linecap:square;stroke-width:0.8;"/>
     </g>
     <g id="line2d_28">
      <g>
       <use style="fill:#555555;stroke:#555555;stroke-width:0.8;" x="54.278125" xlink:href="#m9383f57d4a" y="210.913778"/>
      </g>
     </g>
     <g id="text_15">
      <!-- 0.20 -->
      <g style="fill:#555555;" transform="translate(7.2 217.752372)scale(0.18 -0.18)">
       <use xlink:href="#DejaVuSans-48"/>
       <use x="63.623047" xlink:href="#DejaVuSans-46"/>
       <use x="95.410156" xlink:href="#DejaVuSans-50"/>
       <use x="159.033203" xlink:href="#DejaVuSans-48"/>
      </g>
     </g>
    </g>
    <g id="ytick_6">
     <g id="line2d_29">
      <path clip-path="url(#p33f70e2333)" d="M 54.278125 153.122223 
L 612.278125 153.122223 
" style="fill:none;stroke:#ffffff;stroke-linecap:square;stroke-width:0.8;"/>
     </g>
     <g id="line2d_30">
      <g>
       <use style="fill:#555555;stroke:#555555;stroke-width:0.8;" x="54.278125" xlink:href="#m9383f57d4a" y="153.122223"/>
      </g>
     </g>
     <g id="text_16">
      <!-- 0.25 -->
      <g style="fill:#555555;" transform="translate(7.2 159.960816)scale(0.18 -0.18)">
       <use xlink:href="#DejaVuSans-48"/>
       <use x="63.623047" xlink:href="#DejaVuSans-46"/>
       <use x="95.410156" xlink:href="#DejaVuSans-50"/>
       <use x="159.033203" xlink:href="#DejaVuSans-53"/>
      </g>
     </g>
    </g>
    <g id="ytick_7">
     <g id="line2d_31">
      <path clip-path="url(#p33f70e2333)" d="M 54.278125 95.330667 
L 612.278125 95.330667 
" style="fill:none;stroke:#ffffff;stroke-linecap:square;stroke-width:0.8;"/>
     </g>
     <g id="line2d_32">
      <g>
       <use style="fill:#555555;stroke:#555555;stroke-width:0.8;" x="54.278125" xlink:href="#m9383f57d4a" y="95.330667"/>
      </g>
     </g>
     <g id="text_17">
      <!-- 0.30 -->
      <defs>
       <path d="M 40.578125 39.3125 
Q 47.65625 37.796875 51.625 33 
Q 55.609375 28.21875 55.609375 21.1875 
Q 55.609375 10.40625 48.1875 4.484375 
Q 40.765625 -1.421875 27.09375 -1.421875 
Q 22.515625 -1.421875 17.65625 -0.515625 
Q 12.796875 0.390625 7.625 2.203125 
L 7.625 11.71875 
Q 11.71875 9.328125 16.59375 8.109375 
Q 21.484375 6.890625 26.8125 6.890625 
Q 36.078125 6.890625 40.9375 10.546875 
Q 45.796875 14.203125 45.796875 21.1875 
Q 45.796875 27.640625 41.28125 31.265625 
Q 36.765625 34.90625 28.71875 34.90625 
L 20.21875 34.90625 
L 20.21875 43.015625 
L 29.109375 43.015625 
Q 36.375 43.015625 40.234375 45.921875 
Q 44.09375 48.828125 44.09375 54.296875 
Q 44.09375 59.90625 40.109375 62.90625 
Q 36.140625 65.921875 28.71875 65.921875 
Q 24.65625 65.921875 20.015625 65.03125 
Q 15.375 64.15625 9.8125 62.3125 
L 9.8125 71.09375 
Q 15.4375 72.65625 20.34375 73.4375 
Q 25.25 74.21875 29.59375 74.21875 
Q 40.828125 74.21875 47.359375 69.109375 
Q 53.90625 64.015625 53.90625 55.328125 
Q 53.90625 49.265625 50.4375 45.09375 
Q 46.96875 40.921875 40.578125 39.3125 
z
" id="DejaVuSans-51"/>
      </defs>
      <g style="fill:#555555;" transform="translate(7.2 102.169261)scale(0.18 -0.18)">
       <use xlink:href="#DejaVuSans-48"/>
       <use x="63.623047" xlink:href="#DejaVuSans-46"/>
       <use x="95.410156" xlink:href="#DejaVuSans-51"/>
       <use x="159.033203" xlink:href="#DejaVuSans-48"/>
      </g>
     </g>
    </g>
    <g id="ytick_8">
     <g id="line2d_33">
      <path clip-path="url(#p33f70e2333)" d="M 54.278125 37.539112 
L 612.278125 37.539112 
" style="fill:none;stroke:#ffffff;stroke-linecap:square;stroke-width:0.8;"/>
     </g>
     <g id="line2d_34">
      <g>
       <use style="fill:#555555;stroke:#555555;stroke-width:0.8;" x="54.278125" xlink:href="#m9383f57d4a" y="37.539112"/>
      </g>
     </g>
     <g id="text_18">
      <!-- 0.35 -->
      <g style="fill:#555555;" transform="translate(7.2 44.377705)scale(0.18 -0.18)">
       <use xlink:href="#DejaVuSans-48"/>
       <use x="63.623047" xlink:href="#DejaVuSans-46"/>
       <use x="95.410156" xlink:href="#DejaVuSans-51"/>
       <use x="159.033203" xlink:href="#DejaVuSans-53"/>
      </g>
     </g>
    </g>
   </g>
   <g id="patch_3">
    <path clip-path="url(#p33f70e2333)" d="M 90.089989 442.08 
L 99.817514 442.08 
L 99.817514 441.855322 
L 90.089989 441.855322 
z
" style="fill:#0000ff;opacity:0.4;"/>
   </g>
   <g id="patch_4">
    <path clip-path="url(#p33f70e2333)" d="M 99.817514 442.08 
L 109.54504 442.08 
L 109.54504 440.300161 
L 99.817514 440.300161 
z
" style="fill:#0000ff;opacity:0.4;"/>
   </g>
   <g id="patch_5">
    <path clip-path="url(#p33f70e2333)" d="M 109.54504 442.08 
L 119.272565 442.08 
L 119.272565 442.046787 
L 109.54504 442.046787 
z
" style="fill:#0000ff;opacity:0.4;"/>
   </g>
   <g id="patch_6">
    <path clip-path="url(#p33f70e2333)" d="M 119.272565 442.08 
L 129.00009 442.08 
L 129.00009 441.8436 
L 119.272565 441.8436 
z
" style="fill:#0000ff;opacity:0.4;"/>
   </g>
   <g id="patch_7">
    <path clip-path="url(#p33f70e2333)" d="M 129.00009 442.08 
L 138.727616 442.08 
L 138.727616 442.033111 
L 129.00009 442.033111 
z
" style="fill:#0000ff;opacity:0.4;"/>
   </g>
   <g id="patch_8">
    <path clip-path="url(#p33f70e2333)" d="M 138.727616 442.08 
L 148.455141 442.08 
L 148.455141 441.497791 
L 138.727616 441.497791 
z
" style="fill:#0000ff;opacity:0.4;"/>
   </g>
   <g id="patch_9">
    <path clip-path="url(#p33f70e2333)" d="M 148.455141 442.08 
L 158.182667 442.08 
L 158.182667 439.344792 
L 148.455141 439.344792 
z
" style="fill:#0000ff;opacity:0.4;"/>
   </g>
   <g id="patch_10">
    <path clip-path="url(#p33f70e2333)" d="M 158.182667 442.08 
L 167.910192 442.08 
L 167.910192 438.887622 
L 158.182667 438.887622 
z
" style="fill:#0000ff;opacity:0.4;"/>
   </g>
   <g id="patch_11">
    <path clip-path="url(#p33f70e2333)" d="M 167.910192 442.08 
L 177.637718 442.08 
L 177.637718 432.606412 
L 167.910192 432.606412 
z
" style="fill:#0000ff;opacity:0.4;"/>
   </g>
   <g id="patch_12">
    <path clip-path="url(#p33f70e2333)" d="M 177.637718 442.08 
L 187.365243 442.08 
L 187.365243 430.633155 
L 177.637718 430.633155 
z
" style="fill:#0000ff;opacity:0.4;"/>
   </g>
   <g id="patch_13">
    <path clip-path="url(#p33f70e2333)" d="M 187.365243 442.08 
L 197.092769 442.08 
L 197.092769 362.751154 
L 187.365243 362.751154 
z
" style="fill:#0000ff;opacity:0.4;"/>
   </g>
   <g id="patch_14">
    <path clip-path="url(#p33f70e2333)" d="M 197.092769 442.08 
L 206.820294 442.08 
L 206.820294 316.830919 
L 197.092769 316.830919 
z
" style="fill:#0000ff;opacity:0.4;"/>
   </g>
   <g id="patch_15">
    <path clip-path="url(#p33f70e2333)" d="M 206.820294 442.08 
L 216.54782 442.08 
L 216.54782 63.69719 
L 206.820294 63.69719 
z
" style="fill:#0000ff;opacity:0.4;"/>
   </g>
   <g id="patch_16">
    <path clip-path="url(#p33f70e2333)" d="M 216.54782 442.08 
L 226.275345 442.08 
L 226.275345 170.415236 
L 216.54782 170.415236 
z
" style="fill:#0000ff;opacity:0.4;"/>
   </g>
   <g id="patch_17">
    <path clip-path="url(#p33f70e2333)" d="M 226.275345 442.08 
L 236.00287 442.08 
L 236.00287 172.517439 
L 226.275345 172.517439 
z
" style="fill:#0000ff;opacity:0.4;"/>
   </g>
   <g id="patch_18">
    <path clip-path="url(#p33f70e2333)" d="M 236.00287 442.08 
L 245.730396 442.08 
L 245.730396 196.233646 
L 236.00287 196.233646 
z
" style="fill:#0000ff;opacity:0.4;"/>
   </g>
   <g id="patch_19">
    <path clip-path="url(#p33f70e2333)" d="M 245.730396 442.08 
L 255.457921 442.08 
L 255.457921 290.930454 
L 245.730396 290.930454 
z
" style="fill:#0000ff;opacity:0.4;"/>
   </g>
   <g id="patch_20">
    <path clip-path="url(#p33f70e2333)" d="M 255.457921 442.08 
L 265.185447 442.08 
L 265.185447 213.697949 
L 255.457921 213.697949 
z
" style="fill:#0000ff;opacity:0.4;"/>
   </g>
   <g id="patch_21">
    <path clip-path="url(#p33f70e2333)" d="M 265.185447 442.08 
L 274.912972 442.08 
L 274.912972 353.304918 
L 265.185447 353.304918 
z
" style="fill:#0000ff;opacity:0.4;"/>
   </g>
   <g id="patch_22">
    <path clip-path="url(#p33f70e2333)" d="M 274.912972 442.08 
L 284.640498 442.08 
L 284.640498 316.772308 
L 274.912972 316.772308 
z
" style="fill:#0000ff;opacity:0.4;"/>
   </g>
   <g id="patch_23">
    <path clip-path="url(#p33f70e2333)" d="M 284.640498 442.08 
L 294.368023 442.08 
L 294.368023 285.053664 
L 284.640498 285.053664 
z
" style="fill:#0000ff;opacity:0.4;"/>
   </g>
   <g id="patch_24">
    <path clip-path="url(#p33f70e2333)" d="M 294.368023 442.08 
L 304.095549 442.08 
L 304.095549 321.131057 
L 294.368023 321.131057 
z
" style="fill:#0000ff;opacity:0.4;"/>
   </g>
   <g id="patch_25">
    <path clip-path="url(#p33f70e2333)" d="M 304.095549 442.08 
L 313.823074 442.08 
L 313.823074 396.628658 
L 304.095549 396.628658 
z
" style="fill:#0000ff;opacity:0.4;"/>
   </g>
   <g id="patch_26">
    <path clip-path="url(#p33f70e2333)" d="M 313.823074 442.08 
L 323.5506 442.08 
L 323.5506 282.578301 
L 313.823074 282.578301 
z
" style="fill:#0000ff;opacity:0.4;"/>
   </g>
   <g id="patch_27">
    <path clip-path="url(#p33f70e2333)" d="M 323.5506 442.08 
L 333.278125 442.08 
L 333.278125 347.721186 
L 323.5506 347.721186 
z
" style="fill:#0000ff;opacity:0.4;"/>
   </g>
   <g id="patch_28">
    <path clip-path="url(#p33f70e2333)" d="M 333.278125 442.08 
L 343.00565 442.08 
L 343.00565 314.478641 
L 333.278125 314.478641 
z
" style="fill:#0000ff;opacity:0.4;"/>
   </g>
   <g id="patch_29">
    <path clip-path="url(#p33f70e2333)" d="M 343.00565 442.08 
L 352.733176 442.08 
L 352.733176 371.652302 
L 343.00565 371.652302 
z
" style="fill:#0000ff;opacity:0.4;"/>
   </g>
   <g id="patch_30">
    <path clip-path="url(#p33f70e2333)" d="M 352.733176 442.08 
L 362.460701 442.08 
L 362.460701 426.190395 
L 352.733176 426.190395 
z
" style="fill:#0000ff;opacity:0.4;"/>
   </g>
   <g id="patch_31">
    <path clip-path="url(#p33f70e2333)" d="M 362.460701 442.08 
L 372.188227 442.08 
L 372.188227 377.997985 
L 362.460701 377.997985 
z
" style="fill:#0000ff;opacity:0.4;"/>
   </g>
   <g id="patch_32">
    <path clip-path="url(#p33f70e2333)" d="M 372.188227 442.08 
L 381.915752 442.08 
L 381.915752 419.84862 
L 372.188227 419.84862 
z
" style="fill:#0000ff;opacity:0.4;"/>
   </g>
   <g id="patch_33">
    <path clip-path="url(#p33f70e2333)" d="M 381.915752 442.08 
L 391.643278 442.08 
L 391.643278 404.5549 
L 381.915752 404.5549 
z
" style="fill:#0000ff;opacity:0.4;"/>
   </g>
   <g id="patch_34">
    <path clip-path="url(#p33f70e2333)" d="M 391.643278 442.08 
L 401.370803 442.08 
L 401.370803 441.263345 
L 391.643278 441.263345 
z
" style="fill:#0000ff;opacity:0.4;"/>
   </g>
   <g id="patch_35">
    <path clip-path="url(#p33f70e2333)" d="M 401.370803 442.08 
L 411.098329 442.08 
L 411.098329 434.036535 
L 401.370803 434.036535 
z
" style="fill:#0000ff;opacity:0.4;"/>
   </g>
   <g id="patch_36">
    <path clip-path="url(#p33f70e2333)" d="M 411.098329 442.08 
L 420.825854 442.08 
L 420.825854 430.217012 
L 411.098329 430.217012 
z
" style="fill:#0000ff;opacity:0.4;"/>
   </g>
   <g id="patch_37">
    <path clip-path="url(#p33f70e2333)" d="M 420.825854 442.08 
L 430.55338 442.08 
L 430.55338 436.902642 
L 420.825854 436.902642 
z
" style="fill:#0000ff;opacity:0.4;"/>
   </g>
   <g id="patch_38">
    <path clip-path="url(#p33f70e2333)" d="M 430.55338 442.08 
L 440.280905 442.08 
L 440.280905 438.504692 
L 430.55338 438.504692 
z
" style="fill:#0000ff;opacity:0.4;"/>
   </g>
   <g id="patch_39">
    <path clip-path="url(#p33f70e2333)" d="M 440.280905 442.08 
L 450.00843 442.08 
L 450.00843 441.992083 
L 440.280905 441.992083 
z
" style="fill:#0000ff;opacity:0.4;"/>
   </g>
   <g id="patch_40">
    <path clip-path="url(#p33f70e2333)" d="M 450.00843 442.08 
L 459.735956 442.08 
L 459.735956 437.4321 
L 450.00843 437.4321 
z
" style="fill:#0000ff;opacity:0.4;"/>
   </g>
   <g id="patch_41">
    <path clip-path="url(#p33f70e2333)" d="M 459.735956 442.08 
L 469.463481 442.08 
L 469.463481 436.711177 
L 459.735956 436.711177 
z
" style="fill:#0000ff;opacity:0.4;"/>
   </g>
   <g id="patch_42">
    <path clip-path="url(#p33f70e2333)" d="M 469.463481 442.08 
L 479.191007 442.08 
L 479.191007 441.616968 
L 469.463481 441.616968 
z
" style="fill:#0000ff;opacity:0.4;"/>
   </g>
   <g id="patch_43">
    <path clip-path="url(#p33f70e2333)" d="M 479.191007 442.08 
L 488.918532 442.08 
L 488.918532 441.89635 
L 479.191007 441.89635 
z
" style="fill:#0000ff;opacity:0.4;"/>
   </g>
   <g id="patch_44">
    <path clip-path="url(#p33f70e2333)" d="M 488.918532 442.08 
L 498.646058 442.08 
L 498.646058 441.634552 
L 488.918532 441.634552 
z
" style="fill:#0000ff;opacity:0.4;"/>
   </g>
   <g id="patch_45">
    <path clip-path="url(#p33f70e2333)" d="M 498.646058 442.08 
L 508.373583 442.08 
L 508.373583 441.030852 
L 498.646058 441.030852 
z
" style="fill:#0000ff;opacity:0.4;"/>
   </g>
   <g id="patch_46">
    <path clip-path="url(#p33f70e2333)" d="M 508.373583 442.08 
L 518.101109 442.08 
L 518.101109 439.24906 
L 508.373583 439.24906 
z
" style="fill:#0000ff;opacity:0.4;"/>
   </g>
   <g id="patch_47">
    <path clip-path="url(#p33f70e2333)" d="M 518.101109 442.08 
L 527.828634 442.08 
L 527.828634 440.218105 
L 518.101109 440.218105 
z
" style="fill:#0000ff;opacity:0.4;"/>
   </g>
   <g id="patch_48">
    <path clip-path="url(#p33f70e2333)" d="M 527.828634 442.08 
L 537.55616 442.08 
L 537.55616 442.08 
L 527.828634 442.08 
z
" style="fill:#0000ff;opacity:0.4;"/>
   </g>
   <g id="patch_49">
    <path clip-path="url(#p33f70e2333)" d="M 537.55616 442.08 
L 547.283685 442.08 
L 547.283685 432.325076 
L 537.55616 432.325076 
z
" style="fill:#0000ff;opacity:0.4;"/>
   </g>
   <g id="patch_50">
    <path clip-path="url(#p33f70e2333)" d="M 547.283685 442.08 
L 557.01121 442.08 
L 557.01121 441.624783 
L 547.283685 441.624783 
z
" style="fill:#0000ff;opacity:0.4;"/>
   </g>
   <g id="patch_51">
    <path clip-path="url(#p33f70e2333)" d="M 557.01121 442.08 
L 566.738736 442.08 
L 566.738736 442.08 
L 557.01121 442.08 
z
" style="fill:#0000ff;opacity:0.4;"/>
   </g>
   <g id="patch_52">
    <path clip-path="url(#p33f70e2333)" d="M 566.738736 442.08 
L 576.466261 442.08 
L 576.466261 441.958869 
L 566.738736 441.958869 
z
" style="fill:#0000ff;opacity:0.4;"/>
   </g>
   <g id="line2d_35">
    <path clip-path="url(#p33f70e2333)" d="M 79.641761 442.08 
L 87.630308 442.036328 
L 91.624582 441.914871 
L 95.618855 441.47509 
L 99.613129 440.479291 
L 103.607402 440.292424 
L 107.601675 441.450332 
L 111.595949 441.985471 
L 123.578769 441.940403 
L 131.567316 442.017717 
L 135.56159 441.865386 
L 139.555863 441.593861 
L 143.550136 441.528384 
L 147.54441 440.507907 
L 151.538683 438.975536 
L 155.532957 439.791984 
L 159.52723 439.85219 
L 163.521504 439.080593 
L 167.515777 438.139257 
L 171.510051 435.871789 
L 175.504324 431.866802 
L 179.498597 429.601282 
L 183.492871 422.063393 
L 187.487144 396.797445 
L 191.481418 367.568928 
L 195.475691 344.813165 
L 199.469965 320.240054 
L 203.464238 287.494785 
L 207.458512 232.872227 
L 211.452785 116.854839 
L 215.447058 27.908571 
L 219.441332 99.025065 
L 223.435605 145.947334 
L 227.429879 140.590627 
L 231.424152 211.519966 
L 235.418426 209.764388 
L 239.412699 170.634905 
L 243.406973 260.397377 
L 247.401246 301.745271 
L 251.395519 267.244356 
L 255.389793 280.783254 
L 259.384066 265.928167 
L 263.37834 233.477547 
L 267.372613 271.540351 
L 271.366887 312.362668 
L 275.36116 315.795173 
L 279.355434 329.040346 
L 283.349707 335.157332 
L 287.34398 283.392907 
L 291.338254 271.772279 
L 295.332527 330.241486 
L 299.326801 339.248975 
L 303.321074 327.935329 
L 307.315348 353.213936 
L 311.309621 329.017884 
L 315.303895 280.759018 
L 319.298168 334.23401 
L 323.292441 359.681624 
L 327.286715 338.682243 
L 331.280988 374.728785 
L 335.275262 355.242084 
L 339.269535 284.785797 
L 343.263809 351.805736 
L 347.258082 388.225563 
L 351.252355 377.111652 
L 355.246629 400.155771 
L 359.240902 403.988564 
L 363.235176 380.539886 
L 367.229449 391.304579 
L 371.223723 410.128066 
L 375.217996 414.979993 
L 379.21227 420.920988 
L 383.206543 420.580542 
L 387.200816 406.904653 
L 391.19509 411.10071 
L 395.189363 430.474325 
L 399.183637 435.02177 
L 403.17791 433.909283 
L 407.172184 437.077426 
L 411.166457 434.419009 
L 415.160731 429.839566 
L 419.155004 435.023404 
L 423.149277 438.037011 
L 427.143551 436.422367 
L 431.137824 438.619467 
L 435.132098 439.46727 
L 439.126371 437.65535 
L 443.120645 439.970256 
L 447.114918 439.745799 
L 451.109192 436.758609 
L 455.103465 438.86465 
L 459.097738 439.466697 
L 463.092012 436.61426 
L 467.086285 437.802608 
L 471.080559 440.69276 
L 475.074832 441.494754 
L 479.069106 441.684601 
L 483.063379 441.749391 
L 487.057653 441.481042 
L 495.046199 441.534867 
L 499.040473 440.930405 
L 503.034746 440.684171 
L 507.02902 439.824001 
L 511.023293 439.434619 
L 515.017567 440.735887 
L 519.01184 441.602855 
L 523.006114 440.918376 
L 527.000387 439.855475 
L 530.99466 440.80925 
L 534.988934 437.463025 
L 538.983207 430.740585 
L 542.977481 436.123574 
L 546.971754 440.501526 
L 550.966028 441.34024 
L 554.960301 441.824867 
L 558.954575 442.038655 
L 566.943121 442.057015 
L 578.925942 442.006173 
L 586.914489 442.076412 
L 586.914489 442.076412 
" style="fill:none;stroke:#0000ff;stroke-linecap:square;stroke-width:1.5;"/>
   </g>
   <g id="patch_53">
    <path d="M 54.278125 442.08 
L 54.278125 7.2 
" style="fill:none;stroke:#ffffff;stroke-linecap:square;stroke-linejoin:miter;"/>
   </g>
   <g id="patch_54">
    <path d="M 612.278125 442.08 
L 612.278125 7.2 
" style="fill:none;stroke:#ffffff;stroke-linecap:square;stroke-linejoin:miter;"/>
   </g>
   <g id="patch_55">
    <path d="M 54.278125 442.08 
L 612.278125 442.08 
" style="fill:none;stroke:#ffffff;stroke-linecap:square;stroke-linejoin:miter;"/>
   </g>
   <g id="patch_56">
    <path d="M 54.278125 7.2 
L 612.278125 7.2 
" style="fill:none;stroke:#ffffff;stroke-linecap:square;stroke-linejoin:miter;"/>
   </g>
  </g>
 </g>
 <defs>
  <clipPath id="p33f70e2333">
   <rect height="434.88" width="558" x="54.278125" y="7.2"/>
  </clipPath>
 </defs>
</svg>
